<?xml version="1.0" encoding="UTF-8" standalone="no"?>
<svg
   id="abe9a4ff-27f3-4ae0-80d1-3256bfad5e8d"
   data-name="Layer 1"
   width="844.6693"
   height="576"
   viewBox="0 0 844.6693 576"
   version="1.1"
   sodipodi:docname="clouds.svg"
   inkscape:version="1.1 (c68e22c387, 2021-05-23)"
   xmlns:inkscape="http://www.inkscape.org/namespaces/inkscape"
   xmlns:sodipodi="http://sodipodi.sourceforge.net/DTD/sodipodi-0.dtd"
   xmlns="http://www.w3.org/2000/svg"
   xmlns:svg="http://www.w3.org/2000/svg">
  <defs
     id="defs61" />
  <sodipodi:namedview
     id="namedview59"
     pagecolor="#505050"
     bordercolor="#eeeeee"
     borderopacity="1"
     inkscape:pageshadow="0"
     inkscape:pageopacity="0"
     inkscape:pagecheckerboard="0"
     showgrid="false"
     inkscape:zoom="0.28656819"
     inkscape:cx="-20.937425"
     inkscape:cy="242.52517"
     inkscape:window-width="1366"
     inkscape:window-height="705"
     inkscape:window-x="-8"
     inkscape:window-y="-8"
     inkscape:window-maximized="1"
     inkscape:current-layer="abe9a4ff-27f3-4ae0-80d1-3256bfad5e8d" />
  <g
     id="g1574">
    <path
       d="m 806.51511,454.41651 a 1.35446,1.35446 0 0 1 -1.3498,-1.25962 60.446,60.446 0 0 0 -60.12023,-56.01 c -1.82627,0 -3.7415,0.0926 -5.6926,0.27547 a 1.35883,1.35883 0 0 1 -1.30179,-0.67528 71.757,71.757 0 0 0 -131.22234,15.60721 1.36278,1.36278 0 0 1 -1.3313,0.9772 l -0.4533,-0.0136 c -0.23752,-0.008 -0.475,-0.0162 -0.71455,-0.0162 a 50.71188,50.71188 0 0 0 -49.41759,40.03969 1.35443,1.35443 0 0 1 -1.32535,1.07509 H 439.6624 a 1.35453,1.35453 0 1 1 0,-2.70906 h 112.83686 a 53.44356,53.44356 0 0 1 51.82994,-41.1148 c 0.0656,0 0.13112,6.6e-4 0.19652,0.001 a 75.09188,75.09188 0 0 1 26.10971,-37.49034 73.75529,73.75529 0 0 1 45.11457,-15.22625 74.704,74.704 0 0 1 64.21542,36.77243 c 1.73616,-0.14055 3.44106,-0.21165 5.07966,-0.21165 a 63.16414,63.16414 0 0 1 62.82273,58.52927 1.35444,1.35444 0 0 1 -1.2565,1.44614 c -0.032,0.002 -0.064,0.003 -0.096,0.003 z"
       fill="#e5e5e5"
       id="path4"
       style="fill:#296187;fill-opacity:1" />
    <path
       d="M 741.28208,476.22002 H 507.40097 a 1.35454,1.35454 0 0 1 0,-2.70907 h 233.88111 a 1.35454,1.35454 0 0 1 0,2.70907 z"
       fill="#e5e5e5"
       id="path6"
       style="fill:#296187;fill-opacity:1" />
    <path
       d="m 575.42081,500.87702 h -93.5273 a 1.35453,1.35453 0 1 1 0,-2.70906 h 93.5273 a 1.35453,1.35453 0 0 1 0,2.70906 z"
       fill="#e5e5e5"
       id="path8"
       style="fill:#296187;fill-opacity:1" />
  </g>
  <g
     id="g66"
     transform="matrix(1.1859057,0,0,1.1859057,48.573536,91.259382)">
    <path
       d="M 611.13068,276.35645 A 1.99989,1.99989 0 0 1 609.13776,274.49658 70.684,70.684 0 0 0 538.83454,209 c -2.13208,0 -4.37183,0.1084 -6.65747,0.32227 a 1.99926,1.99926 0 0 1 -1.92188,-0.99707 83.98854,83.98854 0 0 0 -153.59033,18.26709 1.99074,1.99074 0 0 1 -1.9668,1.44287 l -0.53174,-0.0161 c -0.27661,-0.009 -0.553,-0.019 -0.83178,-0.019 a 59.23514,59.23514 0 0 0 -57.72315,46.769 2,2 0 0 1 -1.957,1.58741 h -133.989 a 2,2 0 0 1 0,-4 H 312.05378 A 63.27072,63.27072 0 0 1 373.26545,224 87.98779,87.98779 0 0 1 533.08161,205.23047 C 535.04889,205.07715 536.97882,205 538.83454,205 a 74.69706,74.69706 0 0 1 74.29346,69.21631 1.99984,1.99984 0 0 1 -1.85522,2.13525 c -0.0476,0.003 -0.095,0.005 -0.1421,0.005 z"
       transform="translate(-177.66535,-162)"
       fill="#e5e5e5"
       id="path10"
       style="fill:#296187;fill-opacity:1" />
    <path
       d="m 587.33454,302 h -328 a 2,2 0 0 1 0,-4 h 328 a 2,2 0 0 1 0,4 z"
       transform="translate(-177.66535,-162)"
       fill="#e5e5e5"
       id="path12"
       style="fill:#296187;fill-opacity:1" />
    <path
       d="m 339.33454,331 h -110 a 2,2 0 0 1 0,-4 h 110 a 2,2 0 1 1 0,4 z"
       transform="translate(-177.66535,-162)"
       fill="#e5e5e5"
       id="path14"
       style="fill:#296187;fill-opacity:1" />
  </g>
</svg>
